<svg id="SvgjsSvg1014" width="288" height="288" xmlns="http://www.w3.org/2000/svg" version="1.1" xmlns:xlink="http://www.w3.org/1999/xlink"><defs id="SvgjsDefs1015"></defs><g id="SvgjsG1016"><svg xmlns="http://www.w3.org/2000/svg" viewBox="0 0 32 32" width="288" height="288"><g data-name="Layer 2" fill="#ffffff" class="color000 svgShape"><path d="M16,30a1,1,0,0,0,.62-.22C17,29.44,27,21.38,27,13A11,11,0,0,0,5,13c0,8.38,10,16.44,10.38,16.78A1,1,0,0,0,16,30ZM7,13a9,9,0,0,1,18,0c0,6.3-6.87,12.81-9,14.69C13.87,25.81,7,19.3,7,13Z" fill="#ffffff" class="color000 svgShape"></path><path d="M21,13a5,5,0,1,0-5,5A5,5,0,0,0,21,13Zm-8,0a3,3,0,1,1,3,3A3,3,0,0,1,13,13Z" fill="#ffffff" class="color000 svgShape"></path></g></svg></g></svg>